<svg xmlns="http://www.w3.org/2000/svg" width="1024" height="1024" aria-label="Sattvah" viewBox="0 0 1024 1024"><defs><linearGradient id="b" x1="0" x2="0" y1="0" y2="1"><stop offset="0%" stop-color="#bd4744"/><stop offset="100%" stop-color="#a5312e"/></linearGradient><clipPath id="a"><path d="M512 0C297.74 0 190.62 0 117.8 36.41c-31.6 15.3-66.08 49.79-81.39 81.4C0 190.6 0 297.74 0 512s0 321.38 36.41 394.2c15.3 31.6 49.79 66.08 81.4 81.39C190.6 1024 297.74 1024 512 1024s321.38 0 394.2-36.41c31.6-15.3 66.08-49.79 81.39-81.4C1024 833.4 1024 726.26 1024 512s0-321.38-36.41-394.2c-15.3-31.6-49.79-66.08-81.4-81.39C833.4 0 726.26 0 512 0"/></clipPath></defs><g clip-path="url(#a)"><path fill="url(#b)" d="M0 0h1024v1024H0z"/><path fill="#fff" d="M557.92 143.51c-.11.11-3.32.43-7.1.71-3.82.29-7.56.61-8.34.71-.78.11-2.53.25-3.92.36-3.24.21-10.84 1.39-13.55 2.07-1.18.32-2.92.64-3.92.78-.96.11-2.35.46-3.03.71-.68.29-2.78.75-4.64 1.07-1.85.29-4.03.78-4.81 1.03-2.71.96-9.63 2.99-11.02 3.24-.75.11-2.25.61-3.32 1.11a56 56 0 0 1-4.67 1.71c-2.89.93-8.38 3.14-11.55 4.64-1.03.5-3.1 1.39-4.56 2a18 18 0 0 0-3.39 1.78c-.43.39-1.6 1-2.67 1.39-3.35 1.18-8.98 3.99-10.27 5.13-.32.29-1.57 1-2.75 1.6-3.46 1.71-7.7 4.24-8.74 5.24-.5.5-1.11.89-1.32.89-.82 0-5.31 2.57-7.24 4.1a35 35 0 0 1-3.57 2.57c-.89.53-2.46 1.75-3.49 2.67-1.07.93-2.03 1.71-2.21 1.71s-1.03.61-1.93 1.32a92 92 0 0 1-3.24 2.6 191 191 0 0 0-6.35 5.1c-.75.61-1.6 1.28-1.89 1.43-.93.5-20.93 20.64-23.67 23.82-2.5 2.89-3.28 3.78-6.95 8.2-.78.93-2.53 3.42-3.92 5.53a33 33 0 0 1-3.6 4.74 8 8 0 0 0-1.89 2.53c-.43.89-1.39 2.39-2.17 3.35a8 8 0 0 0-1.43 2.14c0 .25-.78 1.46-1.78 2.67-.96 1.21-1.78 2.46-1.78 2.71 0 .29-.5 1.07-1.07 1.75a9 9 0 0 0-1.6 2.46 10 10 0 0 1-1.39 2.28 13 13 0 0 0-1.64 2.96 13 13 0 0 1-1.64 2.92 4 4 0 0 0-.86 1.46c0 .21-.43 1-.93 1.71a10 10 0 0 0-1.25 2.89 10 10 0 0 1-1.25 2.85c-.5.71-1.14 2.35-1.43 3.6a7.3 7.3 0 0 1-1.53 3.39 9 9 0 0 0-1.64 2.96c-.32 1.07-1 2.5-1.46 3.17-.43.68-1.07 2.39-1.39 3.82a10 10 0 0 1-1.57 3.82c-.57.68-1.53 2.82-2.17 4.74a43 43 0 0 1-2.14 5.46 22 22 0 0 0-1.46 4.6 12 12 0 0 1-1.32 3.89q-.81 1.24-1.35 4.46a22 22 0 0 1-.86 3.78c-.18.36-.57 2.07-.89 3.85a33 33 0 0 1-1.03 4.46c-.29.64-.82 3.57-1.25 6.52a60 60 0 0 1-1.5 7.45c-.68 1.96-1.18 5.42-2.14 14.83-.18 2.07-.5 4.39-.68 5.17s-.39 2.85-.5 4.64a58 58 0 0 1-.93 6.67c-.64 3.14-.71 4.39-.53 14.26.07 5.92.32 11.84.53 13.12.68 4.24 1.43 9.73 2.14 16.22 1.18 10.59 1.35 11.66 2.25 13.91.53 1.28 1.11 3.99 1.46 6.77.36 2.53.93 5.53 1.32 6.6.68 1.82 1.32 4.81 2.6 11.94.29 1.6.75 3.42 1.03 4.1a50 50 0 0 1 2.75 7.95c.21 1.11.78 2.5 1.21 3.03.89 1.07 1.39 2.39 2 5.53.21 1.11.78 2.5 1.21 3.03 1.18 1.39 1.46 2.1 2 4.6.29 1.46.75 2.5 1.28 2.99.46.43.86 1.07.86 1.39 0 1.03 1.43 4.74 2.1 5.53.36.39.93 1.6 1.28 2.67a26 26 0 0 0 1.43 3.39c.46.78.93 2 1.07 2.67.14.68.46 1.5.68 1.78a13 13 0 0 1 2.17 4.24c.14.61.61 1.57 1.07 2.1.43.53.93 1.5 1.07 2.14a6 6 0 0 0 1.25 2.35c.57.64 1.14 1.6 1.28 2.17s.64 1.57 1.11 2.25c.43.68.82 1.43.82 1.68s.25.64.5.89c.29.21.71 1 .96 1.71.21.71.86 1.78 1.39 2.39a7 7 0 0 1 1.32 2.14c.21.57.86 1.6 1.5 2.25a9 9 0 0 1 1.53 2.64c.25.93.93 1.82 1.85 2.6a7.6 7.6 0 0 1 2.32 3.39c.46 1.18 1 2.25 1.14 2.35.61.36 3.53 5.1 3.99 6.52.32.86.89 1.78 1.32 2.07a8 8 0 0 1 1.68 2.42 7 7 0 0 0 1.71 2.46c.46.29.93 1.03 1.07 1.64s.75 1.46 1.43 2q1.18.93 1.78 2.6a8 8 0 0 0 1.6 2.71 7 7 0 0 1 1.46 2.21c.21.64.68 1.35 1.03 1.53.36.21 1.03 1 1.46 1.75a5 5 0 0 0 1.57 1.75 5 5 0 0 1 1.57 1.93c.39.86 1.25 2.03 1.85 2.64.61.57 1.32 1.46 1.6 1.96.25.53.93 1.43 1.46 2 1.03 1.14 1.78 2.14 3.99 5.63.75 1.18 2.1 2.85 2.96 3.74.89.89 1.89 2.21 2.25 2.96a4 4 0 0 0 1.5 1.78c.5.21 1 .89 1.25 1.75a4.6 4.6 0 0 0 1.32 2.1c.5.39 1.25 1.28 1.64 2.03.43.78 1.28 1.6 2.14 2.07 1.14.57 1.46.93 1.53 1.82.07.71.43 1.32.96 1.68.5.32 1.43 1.46 2.14 2.53.68 1.11 1.5 2.07 1.82 2.21.29.11.82.78 1.21 1.5.36.71 1.21 1.82 1.93 2.46a6 6 0 0 1 1.43 1.78c.11.32.78.93 1.53 1.32a3 3 0 0 1 1.68 2.03c.25.86 1.46 2.46 3.42 4.56a34 34 0 0 1 3.35 3.92c.18.36.78.86 1.35 1.11a7 7 0 0 1 2.32 2.17c.68.93 1.39 1.71 1.53 1.71.18 0 .43.36.57.78s1.07 1.64 2.07 2.64c2.28 2.32 4.85 5.49 5.67 7.13.36.68 1 1.43 1.46 1.6.46.21 1.39 1.39 2.1 2.6.89 1.53 1.68 2.39 2.53 2.78.82.43 1.35 1 1.64 1.85s.86 1.5 1.93 2.14q1.49.86 2.17 2.32c.36.78.96 1.53 1.32 1.68.39.11 1 .89 1.35 1.71.53 1.32 3.24 4.14 3.92 4.14.14 0 .86.96 1.6 2.14a10 10 0 0 0 2.53 2.82 5 5 0 0 1 1.64 1.64c.21.46.68.96 1.07 1.11.36.11.96.82 1.35 1.57s1 1.46 1.35 1.57c.82.29 3.07 2.96 3.89 4.64.32.71.71 1.28.86 1.28.75 0 2.5 2 2.82 3.28q.42 1.42 1.43 2a5 5 0 0 1 1.64 1.96c.36.75 1.11 1.6 1.68 1.89a4.3 4.3 0 0 1 1.57 1.85c.29.71 1.64 2.53 2.99 4.03s2.46 2.89 2.46 3.1.64 1.11 1.39 2c.78.89 1.5 1.93 1.64 2.32.11.36.61.96 1.11 1.25a5 5 0 0 1 1.43 2 7 7 0 0 0 1.82 2.35 6.5 6.5 0 0 1 1.75 2.14c.25.64.64 1.25.82 1.39.82.46 4.78 5.7 5.28 6.92.29.71 1 1.64 1.57 2.1a4.5 4.5 0 0 1 1.39 2.28 9 9 0 0 0 2 3.14c.86.93 1.57 1.85 1.57 2.1 0 .61 1.03 2.57 1.78 3.42.36.39.93 1.64 1.25 2.75.32 1.14.89 2.28 1.25 2.53.39.25 1 1.21 1.39 2.1s.86 1.75 1.07 1.89c.39.21 1.03 1.53 2.1 4.14.21.53.86 1.5 1.43 2.14.61.68 1.46 2.35 1.96 3.71l1.68 4.64c.43 1.18 1.11 2.5 1.46 2.89a9 9 0 0 1 1.25 2.99c.29 1.21.89 2.71 1.39 3.35.64.86.89 1.64.89 2.75 0 .86.25 2.35.53 3.32s.53 2.35.53 3.07.25 2.1.57 3.07c.82 2.67 1.96 17.33 1.53 19.97-.14.96-.29 2.67-.29 3.78a11 11 0 0 1-.53 3.21c-.29.64-.82 2.14-1.14 3.32-1.03 3.6-5.42 10.98-6.88 11.59-.5.21-1.21.86-1.53 1.43a6 6 0 0 1-1.71 1.75c-.61.36-1.35 1-1.64 1.43a5 5 0 0 1-1.82 1.28c-.68.29-1.32.86-1.43 1.25-.11.36-.53.78-.96.93-.39.11-1.07.5-1.46.86a9 9 0 0 1-4.03 1.89c-.68.14-1.6.57-2.1.96s-1.57.89-2.39 1.11c-1.75.5-12.98.5-19.4 0-3.74-.29-4.71-.5-6.63-1.43a11 11 0 0 0-3.03-1.11 6.3 6.3 0 0 1-3.57-1.53 5 5 0 0 0-1.93-1 7 7 0 0 1-2.46-1.21 6 6 0 0 0-2.07-1.07 2.6 2.6 0 0 1-1.46-.93 5 5 0 0 0-2.03-1.43 9 9 0 0 1-2.82-2.1c-.68-.75-1.57-1.5-2-1.6a7 7 0 0 1-1.85-1.28c-1.96-1.93-5.95-5.31-6.24-5.31-.14 0-.82-.71-1.46-1.6a8 8 0 0 0-2.14-1.96c-1.18-.5-3.96-3.39-4.74-4.92-.32-.64-1-1.32-1.46-1.5-.5-.18-1.11-.89-1.43-1.64-.29-.68-.82-1.35-1.18-1.46-.36-.07-.86-.68-1.11-1.28-.21-.64-1.21-1.75-2.17-2.5-1.03-.78-1.89-1.78-2.03-2.32-.11-.53-.82-1.78-1.53-2.75-.71-1-1.57-2.28-1.89-2.85a10 10 0 0 0-1.82-2.28 8 8 0 0 1-1.68-2.5c-.21-.71-1-1.93-1.75-2.71s-1.5-1.85-1.6-2.42a4.3 4.3 0 0 0-1.25-1.78 10 10 0 0 1-1.89-2.57c-.5-1-1.32-2.17-1.82-2.64-.5-.5-.93-1.03-.93-1.25s-.5-.89-1.07-1.46c-.61-.61-1.75-2.1-2.53-3.35-.82-1.25-1.75-2.32-2.07-2.42-.36-.07-1.25-1.39-2.03-2.89-.82-1.64-1.71-2.89-2.21-3.1-.43-.18-1.11-1.03-1.5-1.89-.43-.86-1.28-2.1-1.96-2.75a7 7 0 0 1-1.43-2.03 6 6 0 0 0-1.28-1.89c-2.57-2.64-3.32-3.64-4.14-5.53-.64-1.57-1.14-2.17-2.1-2.6-.68-.32-1.21-.82-1.21-1.07 0-.29-.39-.93-.89-1.46s-.89-1.14-.89-1.35-.71-1.11-1.6-2.03c-3.21-3.24-3.92-4.06-4.6-5.17a15 15 0 0 0-1.96-2.39c-.71-.71-2.6-2.71-4.21-4.46-1.64-1.75-3.42-3.67-3.99-4.24a9 9 0 0 1-1.43-2.03 3.5 3.5 0 0 0-1.39-1.6c-1.03-.64-4.71-4.46-4.71-4.88 0-.14-1-1.28-2.21-2.53a75 75 0 0 1-2.96-3.07c-.39-.43-2-2.07-3.57-3.64l-6.17-6.17c-1.82-1.85-3.42-3.35-3.57-3.35s-1.5-1.18-2.99-2.57a66 66 0 0 0-4.42-3.85c-.93-.68-2.07-1.6-2.53-2.03-.46-.46-.96-.82-1.11-.82-.14 0-1.07-.82-2.03-1.82-1-1-2.42-2.25-3.21-2.75a19 19 0 0 1-2.99-2.5 93 93 0 0 0-4.56-4.06c-1.64-1.39-2.96-2.64-2.96-2.82s-.75-.68-1.64-1.07a9 9 0 0 1-2.71-2.14c-.61-.78-1.35-1.39-1.64-1.39-.25 0-1.18-.68-2.03-1.53a24 24 0 0 0-3.07-2.5 41 41 0 0 1-4.88-3.49 13 13 0 0 0-2.32-1.39 16 16 0 0 1-3.46-2.42 18 18 0 0 0-3.85-2.57c-1-.43-1.85-.93-1.85-1.11 0-.57-1.14-1.39-1.96-1.39-.5 0-1.39-.5-2.07-1.21a11 11 0 0 0-2.89-1.93c-.89-.43-1.75-1-1.85-1.32-.14-.32-.86-.82-1.6-1.14a6 6 0 0 1-2.03-1.32 9 9 0 0 0-3.64-2.53 7 7 0 0 1-1.96-1.25 11 11 0 0 0-2.85-1.78c-.96-.43-2.1-1.07-2.5-1.43a8 8 0 0 0-2.32-1.25 12 12 0 0 1-2.92-1.6 15 15 0 0 0-3.21-1.82 11 11 0 0 1-2.42-1.21c-.29-.25-1.46-.89-2.57-1.35a17 17 0 0 1-3.57-2.28 12 12 0 0 0-3.32-2.03c-.96-.36-2.1-.86-2.53-1.11a23 23 0 0 0-3.03-1.43 25 25 0 0 1-3.74-2 27 27 0 0 0-3.92-1.96 23 23 0 0 1-3.67-1.85c-.64-.5-2.39-1.35-3.85-1.89a24 24 0 0 1-3.99-1.85c-.71-.5-2.07-1.07-3.07-1.32-.96-.21-2.28-.71-2.89-1.11a5 5 0 0 0-1.85-.68 3.7 3.7 0 0 1-1.75-.86 9 9 0 0 0-2.96-1.32 13 13 0 0 1-3.1-1.28 13 13 0 0 0-3.17-1.32 14 14 0 0 1-3.28-1.35c-.75-.5-2.42-1.14-3.82-1.46a35 35 0 0 1-4.71-1.68 11 11 0 0 0-2.71-1.07c-1.14 0-4.21-1.14-5.13-1.93-.57-.46-2.25-1.14-3.89-1.57a18 18 0 0 1-4.14-1.57 16 16 0 0 0-4.21-1.5c-1.64-.36-3.39-.93-3.89-1.28-.53-.39-2.39-.93-4.31-1.25-2.1-.32-4.21-.96-5.53-1.6a19 19 0 0 0-5.56-1.6c-1.85-.29-4.1-.82-4.99-1.21-.86-.39-3.1-.96-4.96-1.28a48 48 0 0 1-5.88-1.43 71 71 0 0 0-8.91-2.28c-.96-.18-2.99-.68-4.46-1.07s-3.71-.96-4.99-1.25a34 34 0 0 1-3.39-.93c-2.1-.86-5.1-1.39-9.59-1.78a36 36 0 0 1-6.06-.93c-4.24-1.57-5.31-1.75-16.62-2.82-5.63-.53-11.45-1.43-13.37-2-.57-.21-3.14-.5-5.7-.68a337 337 0 0 1-17.47-1.96c-2.57-.57-18.72-1.43-33.52-1.78-4.49-.11-10.05-.36-12.3-.57s-6.28-.5-8.91-.64c-2.64-.14-5.17-.43-5.6-.68-.71-.39-.86-.32-1.39.43-.5.82-.57 7.02-.53 73.02.04 68.56.21 82.79 1.11 87.18.5 2.5 1.35 21.14 1.43 30.24.04 7.88.21 9.81 1.21 14.08.29 1.28.78 5.6 1.11 9.63.89 11.48 1.25 15.05 1.78 16.58.75 2.17 1.21 4.96 1.6 9.45.25 2.92.61 4.71 1.25 6.24.46 1.18.89 2.53.89 3.03.04 2 1.75 10.66 2.46 12.44.43 1.07 1 3.39 1.28 5.17a22 22 0 0 0 1.21 4.67c.43.75.75 1.68.75 2a7 7 0 0 0 .53 1.85c.29.71.53 1.89.53 2.6s.25 1.78.5 2.39a32 32 0 0 1 2.21 6.88c.11.89.64 2.1 1.21 2.85a6 6 0 0 1 1.28 3.21 7 7 0 0 0 .86 2.75c.68.82 2.14 4.49 2.78 6.85.71 2.71 2.03 5.78 2.96 6.88a8 8 0 0 1 1.39 2.85c.29 1.21.71 2 1.39 2.5q1.01.7 1.96 3.39c.53 1.46 1.35 3.03 1.82 3.46s.96 1.32 1.11 1.93c.11.61.53 1.46.96 1.89a10 10 0 0 1 1.39 2.85 10 10 0 0 0 1.53 2.96c.46.5.96 1.35 1.11 1.93a9 9 0 0 0 1.78 2.78c.86.96 1.57 2.03 1.57 2.42s.71 1.5 1.57 2.46a9 9 0 0 1 1.82 2.85c.14.61.68 1.43 1.25 1.82a6 6 0 0 1 1.57 2.1 6 6 0 0 0 1.6 2.21 6 6 0 0 1 1.6 2.28c.32.82.96 1.71 1.43 1.96s1.07.86 1.32 1.39c.25.5 1.14 1.64 1.93 2.57 3.74 4.24 5.21 5.95 6.2 7.31.57.82 1.35 1.71 1.71 1.96.39.29 1.14 1.14 1.71 1.93.57.78 1.85 2.17 2.82 3.1 2.21 2.07 2.03 1.89 6.63 6.6 4.17 4.24 10.48 9.98 13.05 11.87.93.68 2.17 1.78 2.78 2.42.61.68 1.71 1.5 2.42 1.89.71.36 1.6 1.14 1.93 1.75a5 5 0 0 0 1.96 1.57c.75.32 2.5 1.57 3.96 2.82 1.43 1.25 2.96 2.39 3.39 2.53s1.5.96 2.39 1.82a8 8 0 0 0 2.64 1.78c.57.11 1.5.71 2.07 1.28a10 10 0 0 0 2.46 1.82c.78.39 1.93 1.25 2.57 1.93.86.93 1.43 1.21 2.35 1.21.78 0 1.46.29 1.89.75.36.43 1.14 1 1.75 1.28a11 11 0 0 1 1.93 1.39c.46.46 1.43.93 2.14 1.07.89.14 1.75.68 2.75 1.78.86.89 1.82 1.57 2.25 1.57 1.28 0 3.53 1.11 4.14 2 .43.68.86.86 1.96.86 1.14 0 1.71.25 2.82 1.25.93.86 1.71 1.25 2.46 1.25 1.21 0 2.92.64 2.92 1.14 0 .53 2.28 1.71 3.28 1.71 1.46 0 3.89 1.03 5.1 2.17.89.82 1.43 1.03 2.71 1.03 1.68 0 3.89.61 3.89 1.03 0 .14.21.53.46.86.29.43 1.43.78 3.71 1.14 2.21.32 3.78.78 4.85 1.39 1.21.71 2.5 1.07 5.28 1.39 3.17.39 3.85.57 4.64 1.35.71.75 1.6 1.07 4.1 1.53 1.75.32 3.53.57 3.99.57.43 0 1.75.39 2.89.86 1.5.64 3.28 1 6.67 1.28 2.53.25 5.49.71 6.56 1.11 2.85.93 6.7 1.68 12.02 2.28 2.57.29 5.53.82 6.6 1.18 3.39 1.21 8.09 1.85 13.48 1.85 3.28 0 5.85.18 7.1.5 2.35.61 7.02 1.5 9.31 1.78 1.5.21 16.08.57 26.92.71 2.57.04 7.52.25 11.05.5s9.13.61 12.44.78c3.28.18 6.2.5 6.45.71.68.57 397.66.32 398.62-.25.43-.25 4.1-.57 9.27-.78 4.71-.21 11.94-.64 16.04-.89 4.14-.29 11.66-.5 16.76-.53 7.38 0 10.45-.18 14.97-.78 3.14-.39 6.2-1 6.77-1.32.82-.43 3.03-.61 9.63-.82 8.91-.29 11.98-.75 13.69-2 .78-.61 1.75-.75 6.31-.93 4.64-.18 5.78-.32 8.02-1.14a33 33 0 0 1 4.06-1.21c4.21-.82 5.53-1.64 5.53-3.6.04-1.25 1.25-4.78 2.46-7.13a15 15 0 0 0 1.46-4.99c.21-1.68.71-3.78 1.07-4.67.39-.89.86-3.07 1.07-4.81.21-1.75.68-3.74 1.07-4.46a27 27 0 0 0 2.39-9.23 29 29 0 0 1 1.07-5.67c.86-2.64 1.5-6.95 2.25-14.83.21-2.35.57-5.49.75-6.95.89-7.06 1.11-10.95 1.14-20.5.04-7.1-.11-10.8-.39-11.8-.21-.78-.75-5.6-1.14-10.66-.86-10.77-1.18-13.09-2.17-16.22-.39-1.28-.96-4.1-1.21-6.28a37 37 0 0 0-1.03-5.35c-.29-.78-.71-2.35-.93-3.53a87 87 0 0 0-2.17-9.66 37 37 0 0 1-1.03-3.92c-.14-.96-.53-2.64-.86-3.71a80 80 0 0 1-1.14-4.6 14 14 0 0 0-1.21-3.57c-.39-.5-.93-2.32-1.21-4.06-.32-1.85-.82-3.49-1.21-3.99s-1-1.96-1.35-3.28a17 17 0 0 0-1.43-3.67c-.43-.68-1-1.96-1.21-2.85a9 9 0 0 0-1.28-2.85c-.46-.71-1-2.14-1.21-3.21a6.4 6.4 0 0 0-1.21-2.85 6.5 6.5 0 0 1-1.28-2.5 8 8 0 0 0-1.11-2.42 3.4 3.4 0 0 1-.68-1.5c0-.32-.5-1.21-1.07-1.96a7 7 0 0 1-1.28-2.28c-.5-2.32-1.03-3.53-2.14-4.78a7 7 0 0 1-1.35-2.57 7 7 0 0 0-1.46-2.67c-.68-.82-1.25-1.78-1.25-2.1 0-1.32-1.18-4.03-2-4.56-.5-.32-1-1.14-1.21-2.03-.61-2.25-1.07-3.32-1.82-3.99a4.4 4.4 0 0 1-1.03-2 5 5 0 0 0-1.11-2.03c-.93-.86-2.85-3.85-3.71-5.7-.36-.78-.89-1.53-1.21-1.64-.61-.18-2.17-2.99-2.17-3.92 0-.25-.46-.82-1.03-1.21a4.7 4.7 0 0 1-1.46-2.1 8 8 0 0 0-1.78-2.57c-.75-.68-1.6-1.82-1.93-2.5-.78-1.68-2.35-3.78-3.32-4.46-.46-.32-.82-.78-.82-1.03 0-.29-.25-.71-.61-.96-.86-.75-3.28-4.1-3.67-5.13a3.7 3.7 0 0 0-1.39-1.53c-.61-.32-1.25-1-1.46-1.46a5 5 0 0 0-1.21-1.5 7 7 0 0 1-1.46-2.17 10 10 0 0 0-1.89-2.82c-.75-.68-2.1-2.39-3.07-3.82a19 19 0 0 0-2.78-3.28 7 7 0 0 1-1.71-2.1 9 9 0 0 0-1.93-2.42 15 15 0 0 1-2.28-2.6c-1.53-2.25-11.69-13.26-12.76-13.83-.46-.25-.86-.57-.86-.75 0-.46-5.6-6.1-6.06-6.1-.21 0-.64-.57-.89-1.25a3.7 3.7 0 0 0-1.32-1.64 4 4 0 0 1-1.07-.82c-.5-.78-2.32-2.75-4.71-5.1a155 155 0 0 1-3.03-3.07 60 60 0 0 0-2.71-2.67c-1.18-1.14-2.85-2.75-3.74-3.64a42 42 0 0 0-2.35-2.17c-.36-.32-1.03-.96-1.46-1.43a17 17 0 0 0-2.1-1.93 41 41 0 0 1-2.64-2.35 156 156 0 0 0-9.63-8.52 90 90 0 0 1-4.46-3.99c-1.57-1.5-3.85-3.67-5.1-4.81a236 236 0 0 1-4.88-4.67c-1.43-1.43-3.17-2.82-3.85-3.1a8 8 0 0 1-2.42-1.93 9 9 0 0 0-2.42-2.03 9 9 0 0 1-2.28-1.57 20 20 0 0 0-2.1-1.85 24 24 0 0 1-2.42-2.1 11 11 0 0 0-2.42-1.89c-.64-.32-1.32-1-1.5-1.5a3 3 0 0 0-1.57-1.39 5.5 5.5 0 0 1-1.96-1.5 8 8 0 0 0-1.75-1.53 33 33 0 0 1-3.35-2.96c-1.28-1.32-2.53-2.39-2.71-2.39-.21 0-1.53-1.14-2.96-2.5a22 22 0 0 0-2.89-2.5c-.14 0-1.85-1.43-3.82-3.17-1.96-1.75-3.92-3.28-4.39-3.42a7 7 0 0 1-2.1-1.57c-2.1-2.1-3.21-3.03-4.35-3.6a6 6 0 0 1-1.96-1.78 5 5 0 0 0-1.96-1.71 9 9 0 0 1-2.42-1.85c-.75-.82-1.64-1.43-2.07-1.43-.5 0-1.03-.43-1.5-1.21a9 9 0 0 0-2.03-2.21 9 9 0 0 1-1.6-1.46 4 4 0 0 0-1.43-1.03 18 18 0 0 1-3.17-2.67c-1.11-1.18-2.17-2.1-2.39-2.1-.25 0-1.6-1.18-3.07-2.64a39 39 0 0 0-4.06-3.64 8 8 0 0 1-2.1-2.07 6 6 0 0 0-2-1.85 19 19 0 0 1-3.14-2.35c-1.03-.93-3.17-2.78-4.74-4.1a206 206 0 0 1-4.88-4.17c-1.11-1-2.85-2.53-3.89-3.42a74 74 0 0 1-2.96-2.67 15 15 0 0 0-2.71-1.96c-.86-.5-2-1.46-2.5-2.17-.5-.75-1.68-1.96-2.67-2.75-2.46-2-2.99-2.5-4.78-4.64-.86-1-1.89-1.93-2.28-2.07-.89-.29-4.14-3.42-4.71-4.53a1.8 1.8 0 0 0-1.18-.89c-.46-.07-.96-.5-1.14-.93a3.3 3.3 0 0 0-1.18-1.39c-.5-.32-1-.89-1.14-1.28-.11-.39-.82-1.07-1.6-1.5a17 17 0 0 1-3.35-3.17c-1.11-1.28-2.35-2.57-2.82-2.82a12 12 0 0 1-2.39-2.39 30 30 0 0 0-3.99-3.92c-1.32-1.11-2.42-2.17-2.42-2.39 0-.18-.86-1.21-1.85-2.21a74 74 0 0 1-3.32-3.57 42 42 0 0 0-2.64-2.82 19 19 0 0 1-2.17-2.53c-.57-.78-2.1-2.57-3.42-3.92a43 43 0 0 1-3.24-3.82c-.5-.71-1.07-1.39-1.32-1.46a10 10 0 0 1-1.75-2.14 12 12 0 0 0-2.14-2.5 14 14 0 0 1-2.39-2.85 14 14 0 0 0-2.53-3.07 7 7 0 0 1-1.71-2.32 6 6 0 0 0-1.6-2.17 10 10 0 0 1-2-2.25c-.61-.93-1.46-2.21-1.89-2.89a24 24 0 0 0-2-2.5c-.64-.71-1.6-2-2.1-2.89-.86-1.5-1.28-2.1-3.71-5.03-.57-.64-1-1.35-1-1.57s-.53-.93-1.21-1.57c-.71-.68-1.57-2.1-2.03-3.32-.43-1.14-1.14-2.39-1.57-2.71a8 8 0 0 1-1.43-1.85 10 10 0 0 0-1.28-1.96 14 14 0 0 1-1.53-2.78c-.5-1.11-1.07-2.03-1.28-2.03s-.89-1-1.46-2.25c-2.03-4.1-2.99-5.81-3.96-6.95a6 6 0 0 1-1.18-2.28 27 27 0 0 0-2.35-5.28c-.18-.29-.75-1.43-1.25-2.5l-2.1-4.28a23 23 0 0 1-1.57-4.06 9 9 0 0 0-1.28-2.78 7 7 0 0 1-1.25-2.53c-.21-.82-.68-2.21-1.07-3.1s-.86-2.57-1.07-3.78a32 32 0 0 0-1.07-4.17c-.39-1.11-.71-2.5-.71-3.14 0-.61-.39-2.25-.86-3.64-1.11-3.28-1.18-3.74-1.89-8.74-.71-5.21-1.11-15.4-.75-18.97a96 96 0 0 1 2.82-16.22c.93-3.92 1.82-7.84 1.96-8.74.11-.89.75-2.75 1.43-4.1a33 33 0 0 0 1.71-4.49 7 7 0 0 1 1.11-2.46c.46-.36.86-1.5 2.17-6.17.11-.32.61-1.11 1.14-1.75.53-.61 1.28-1.71 1.68-2.46 1.28-2.46 4.17-6.42 5.24-7.2a5.5 5.5 0 0 0 1.6-2.1c.29-.75 1-1.6 1.53-1.96 1.28-.82 4.03-3.17 7.1-6.1a21 21 0 0 1 4.14-3.1c.96-.5 2.1-1.28 2.5-1.71a9 9 0 0 1 2.67-1.68 11 11 0 0 0 2.75-1.64 4.4 4.4 0 0 1 2.14-1.03c2.39-.39 5.24-1.28 6.35-1.96 1.75-1.07 6.74-1.53 14.08-1.32 4.78.11 7.1.32 8.38.75 1 .36 2.64.86 3.71 1.14 1.03.29 2.39.89 2.96 1.39.57.46 1.85 1.11 2.85 1.43 1.75.5 3.32 1.64 6.52 4.71.86.86 1.75 1.53 1.96 1.53s1.03.61 1.89 1.39c.82.75 1.85 1.53 2.32 1.78a6 6 0 0 1 1.68 1.82 17 17 0 0 0 1.68 2.21c.46.43 1.07 1.14 1.35 1.53s.96 1 1.5 1.35a5.5 5.5 0 0 1 1.68 1.96c.39.71 1.85 2.5 3.21 3.92 1.39 1.43 2.53 2.85 2.53 3.14s.53.86 1.21 1.25a5 5 0 0 1 1.64 1.71c.21.57 1.21 1.68 2.25 2.5 1 .82 2.1 1.96 2.46 2.53a8 8 0 0 0 2.14 2c.86.53 2.21 1.57 3.03 2.32.86.78 1.68 1.39 1.89 1.39.5 0 3.24 2 3.78 2.82.29.36 1.07.78 1.78.93.82.14 1.89.78 2.96 1.78a12 12 0 0 0 3.24 2.17c.89.36 2.1 1.07 2.71 1.57a7 7 0 0 0 2.35 1.21c.68.11 1.85.78 2.64 1.46.75.68 2.14 1.5 3.07 1.82.89.29 1.75.75 1.85 1.03.07.25 1.25 1 2.6 1.64 1.32.61 2.82 1.43 3.32 1.75.5.36 1.6.82 2.5 1.07.89.21 1.93.71 2.32 1.07 1.07.93 1.96 1.32 3.74 1.6.89.14 2.42.61 3.42 1.07a42 42 0 0 0 8.09 2.85c1.75.46 3.49 1.07 3.96 1.39.46.29 1.46.61 2.21.75 1.93.32 10.41 2.96 11.73 3.64.61.29 2.42 1.25 4.1 2.14 1.64.86 3.21 1.75 3.42 1.93.32.25.71.18 1.32-.21.82-.53.89-.86 1.11-4.39.39-5.85.93-9.34 1.82-11.48.46-1.07 1.18-3.1 1.57-4.49a13 13 0 0 1 1.46-3.46c.43-.53 1.07-1.93 1.46-3.1a19 19 0 0 1 1.57-3.35c.46-.68 1.07-2.1 1.39-3.14 1.64-5.85 2.39-8.2 3.24-10.55.5-1.43 1.07-3.82 1.25-5.35.18-1.5.64-4.42 1.03-6.49.53-2.85.64-4.92.57-8.74a49 49 0 0 0-.5-6.77c-.21-1-.53-3.46-.71-5.53a24 24 0 0 0-.86-4.99 25 25 0 0 1-.96-3.21c-.25-1.07-.93-2.6-1.46-3.35a6 6 0 0 1-1.03-1.85c0-.71-4.71-5.24-6.2-6.03a11 11 0 0 1-2.67-2.25 8 8 0 0 0-2.46-2.03c-.61-.29-1.28-.86-1.46-1.32s-.82-1.43-1.43-2.21a5 5 0 0 1-1.11-2.14c0-.43-.39-1.32-.89-2-1.28-1.75-1.6-3.24-1.6-7.49 0-3.07.18-4.21.93-6.42.96-2.85 1.71-3.89 3.82-5.21 2.78-1.78 4.81-2.35 8.63-2.32 4.14 0 8.31.57 9.09 1.28.29.25 1.14.71 1.89 1.03 1.68.68 5.88 4.42 8.27 7.34 1 1.21 3.92 4.49 6.52 7.31 2.57 2.85 4.71 5.31 4.71 5.49s.86.82 1.93 1.39c1.03.61 2 1.35 2.1 1.68.14.29 1 .89 1.89 1.28.93.39 2.21 1.18 2.89 1.75.64.61 1.6 1.07 2.07 1.07s1.43.5 2.1 1.07c.68.61 2 1.35 2.96 1.68.93.32 2.21.93 2.78 1.35.61.43 1.75 1.03 2.6 1.39.86.32 2.67 1.25 4.1 2.03 1.43.82 3.6 1.68 4.88 1.96s2.82.71 3.39.93c.61.21 2.42.75 4.1 1.25 3.85 1.11 11.27 1.53 15.05.82 2.25-.43 2.67-.68 4.99-2.71a24 24 0 0 0 2.89-2.85c.18-.32.36-2.46.36-4.74 0-3.6-.11-4.49-.93-6.81a41 41 0 0 1-1.46-5.42c-.29-1.5-.86-3.46-1.25-4.35a42 42 0 0 1-1.64-4.39 22 22 0 0 0-2.14-4.74 23 23 0 0 1-2.17-4.78c-.5-1.6-1.32-3.32-1.89-3.96a9 9 0 0 1-1.46-3.07c-.5-2.17-.89-3.03-1.78-4.06a6 6 0 0 1-.86-1.93 10 10 0 0 0-1.6-3.03c-.75-1-1.5-2.32-1.6-2.89a7 7 0 0 0-1.07-2.14 17 17 0 0 1-1.6-2.82c-.43-.96-1.07-2-1.46-2.25a8 8 0 0 1-1.57-2.17c-1.18-2.32-6.92-9.56-12.02-15.19a63 63 0 0 1-2.75-3.24c-2.5-3.35-17.19-18.26-21.18-21.43a21 21 0 0 1-2.85-2.6 13 13 0 0 0-2.42-1.93 16 16 0 0 1-2.5-1.85 7 7 0 0 0-1.78-1.25 7 7 0 0 1-1.82-1.28c-.29-.32-1.32-1-2.35-1.43-1-.46-1.93-1-2.07-1.21-.39-.64-3.89-3.1-4.81-3.39-.5-.14-1.5-.71-2.25-1.32a13 13 0 0 0-2.5-1.53 5 5 0 0 1-1.78-1.18 14 14 0 0 0-3.21-1.85 50 50 0 0 1-5.46-3.07c-1.57-1-4.14-2.35-5.67-2.96a18 18 0 0 1-3.78-1.96 10 10 0 0 0-2.92-1.43c-1.07-.32-2.5-.96-3.21-1.46a16 16 0 0 0-3.42-1.43 34 34 0 0 1-6.31-2.35c-.82-.36-2.21-.82-3.1-1.03a10 10 0 0 1-2.89-1.21 8 8 0 0 0-3.49-1.07 44 44 0 0 1-6.52-1.71 59 59 0 0 0-7.67-1.93 59 59 0 0 1-5.17-1.03 142 142 0 0 0-15.69-2.85 795 795 0 0 0-19.61-1.6c-5.24-.32-19.22-.46-19.5-.18zm-543.94 54.8c-.25.25-.43 1.11-.43 1.96 0 .82-.18 2.32-.39 3.35a9 9 0 0 0 0 3.92c.53 2.64.07 4.67-1.18 5.24-1.21.53-1.71 2.64-1.68 7.13.04 3.49.36 5.06 1.11 5.06.21 0 .36-.32.36-.71s.39-1.85.86-3.32c.46-1.43.96-3.89 1.11-5.46.14-1.53.46-3.14.68-3.53.25-.39.57-1.6.71-2.67.39-2.64.78-5.24 1.11-6.85.43-2.07-1.25-5.13-2.25-4.14zm-3.64 29.34c-.21.53-.68 1.03-1.03 1.14-.39.11-.78.61-.93 1.11-.46 1.78-.93 8.09-1.18 16.33s-.25 8.24-1.39 9.34c-1.18 1.07-1.18 1.07-1.21 10.66-.07 11.09 0 12.66.43 13.12.18.18.32.86.32 1.5s.11 1.18.29 1.18c.53 0 1.14-4.71 1.18-8.98 0-2.42.14-6.56.29-9.23.21-4.03.39-4.99 1-5.88.89-1.21 1.32-4.85 1.89-16.19.32-6.06.53-7.56 1.11-8.74.53-1.07.68-2 .61-3.71-.11-2.5-.75-3.24-1.35-1.64z"/><path fill="#fff" d="M739.8 327.88c-2.17.29-3.42.64-4.21 1.25-.61.43-1.11.93-1.11 1.11s-.53.53-1.18.86a6 6 0 0 0-2.14 2.14 5 5 0 0 1-2.17 2.07c-.68.29-1.32.82-1.46 1.25-.11.39-.93 1.35-1.82 2.14-.89.78-2.07 2.03-2.6 2.78-.57.75-1.71 2-2.57 2.78-.82.78-2.17 2.07-2.96 2.85a26 26 0 0 1-3.49 2.78c-1.11.75-2.14 1.5-2.25 1.68-.14.21-.96.75-1.89 1.21a10 10 0 0 0-2.5 1.75c-.86.93-1.93 1.43-3.71 1.82-.53.11-1.71.86-2.6 1.64s-1.89 1.43-2.17 1.43-1.18.61-2.03 1.35c-.82.75-2.25 1.96-3.17 2.67-.96.75-1.71 1.6-1.71 1.93 0 .29-.71 1.21-1.6 2.1-.89.86-1.6 1.78-1.6 2.03 0 .53-1.43 3.96-2.35 5.67-1.39 2.57-1.89 7.02-1.21 10.63.14.89.46 2.53.68 3.67.18 1.14.68 2.6 1.11 3.28.39.64.96 2 1.25 2.96.29 1 .78 1.89 1.07 2 .32.11.86.86 1.21 1.64.82 1.82 4.35 5.99 6.49 7.7.5.39 2.96 3.1 7.45 8.27 1.43 1.6 2.89 3.1 3.28 3.32s.93.93 1.21 1.6c.29.64.89 1.46 1.35 1.75a5 5 0 0 1 1.28 1.57 3 3 0 0 0 1.28 1.46c.46.29 1.78 1.57 2.89 2.92 1.11 1.32 2.17 2.42 2.32 2.42.18 0 1.43 1.18 2.78 2.57l2.78 2.85c3.71 3.64 6.67 6.35 6.92 6.35.14 0 .68.61 1.14 1.32 1.11 1.71 2.6 3.24 9.84 10.09 3.21 3.03 6.81 6.49 8.02 7.7a99 99 0 0 0 4.99 4.64 99 99 0 0 1 3.32 2.89c.25.25.75.46 1.07.46s1.28.82 2.14 1.78c.86 1 1.78 1.78 2.07 1.78.57 0 1.18.53 4.92 4.31 1.14 1.14 2.28 2.1 2.5 2.1.25 0 1.32.86 2.39 1.85 6.1 5.78 10.09 9.41 10.8 9.81.46.25 1.11.86 1.43 1.32.32.5 1.18 1.21 1.93 1.6.71.36 2.1 1.6 3.07 2.71.96 1.14 2.28 2.28 2.96 2.53.64.29 1.18.71 1.18 1 0 .64 1 .89 3.49.78 2.57-.11 5.67-.78 6.7-1.46 1.11-.71 4.64-6.13 5.1-7.84.93-3.32 1.75-15.4 1.11-16.58-.18-.36-.61-1.85-.89-3.28a22 22 0 0 0-1.39-4.21c-.46-.89-1.11-2.5-1.39-3.6a8 8 0 0 0-1.35-2.67 9 9 0 0 1-1.57-2.46c-.43-1-1.14-2.1-1.6-2.5a9 9 0 0 1-1.5-2.14 12 12 0 0 0-1.39-2.14c-.64-.71-1.11-1.46-3.35-5.53a14 14 0 0 0-2.21-3.03 9 9 0 0 1-1.75-2.5c-.29-.75-.93-1.89-1.39-2.46a8 8 0 0 1-1.03-1.85 4 4 0 0 0-.93-1.39c-.39-.36-.71-.78-.71-.96 0-.86-1.6-3.78-2.5-4.46a6 6 0 0 1-1.43-1.96c-.29-.64-.89-1.82-1.43-2.6s-1.14-2-1.43-2.67c-.25-.68-.86-1.78-1.35-2.42-.46-.68-1.14-2-1.5-2.96a9 9 0 0 0-1.75-2.78 4.6 4.6 0 0 1-1.28-2.03c-.46-2-.61-2.32-1.46-3.24a3.5 3.5 0 0 1-.86-1.93c0-.53-.39-1.75-.89-2.67a9 9 0 0 1-.89-2.07c0-.25-.53-.93-1.18-1.53a5 5 0 0 1-1.6-3.07 10 10 0 0 0-1.28-3.24c-.5-.75-1-2.07-1.14-2.99-.11-.93-.53-2-.89-2.39a7 7 0 0 1-1.03-2.67 24 24 0 0 0-1.32-4.03 57 57 0 0 1-1.89-5.6 27 27 0 0 0-1.53-4.31 9 9 0 0 1-.78-2.82 37 37 0 0 0-.89-4.28c-1.75-6.03-3.07-14.83-3.39-22.61-.21-4.67-.36-5.74-1.32-8.56a30 30 0 0 0-1.43-3.67c-.21-.25-1.5-1-2.89-1.68-2.99-1.46-4.85-1.68-9.2-1.07zM2.35 335.37c-.32 7.34-.21 96.12.11 100.15.36 4.56.64-10.09.78-40.29.21-44.75.11-63.93-.39-65.21-.14-.39-.36 2.03-.5 5.35"/></g></svg>